<svg width="192" height="187" viewBox="0 0 192 187" fill="none" xmlns="http://www.w3.org/2000/svg">
<path d="M164.772 93.0667C201.074 114.341 201.074 148.831 164.772 170.108C128.47 191.382 69.6147 191.382 33.313 170.108C-2.98876 148.835 -7.50187 114.341 28.7999 93.0667C65.1016 71.7929 128.47 71.7929 164.772 93.0667Z" fill="#F5F5F5"/>
<path d="M52.5086 166.566C50.2442 166.566 47.8774 166.082 45.9122 164.948C43.4785 163.542 41.9741 161.584 41.4503 159.131C40.6391 155.331 42.4191 151.125 44.1913 148.675L44.6953 147.978C47.8143 143.674 49.5353 141.299 48.9249 138.842C48.1963 135.896 38.4967 136.294 28.3088 137.081C27.4305 137.148 26.513 137.219 25.5599 137.294C18.9951 137.79 9.2718 136.632 8.3424 133.628C7.98797 132.482 8.86223 131.292 10.9337 130.095C18.932 125.476 33.3299 117.143 33.3299 117.143L33.7237 117.824C33.7237 117.824 19.3259 126.157 11.3275 130.776C10.15 131.458 8.8071 132.462 9.09458 133.395C9.74438 135.498 18.0263 137.07 25.5009 136.506C26.4539 136.436 27.3715 136.365 28.2497 136.294C38.8827 135.471 48.7989 135.057 49.6928 138.649C50.3899 141.465 48.5941 143.942 45.3373 148.435L44.8332 149.132C43.1555 151.448 41.47 155.413 42.2261 158.962C42.7026 161.191 44.077 162.971 46.31 164.262C50.3269 166.582 55.8757 165.861 58.341 164.451C61.8774 162.427 76.0311 154.346 76.0311 154.346L76.421 155.031C76.421 155.031 62.2673 163.112 58.7309 165.137C57.1792 166.027 54.903 166.566 52.5086 166.566Z" fill="#E0E0E0"/>
<path d="M39.0874 121.069L16.6912 108.137L35.8857 97.0547L58.2818 109.984L39.0874 121.069Z" fill="#E0E0E0"/>
<path d="M126.459 163.378L181.628 131.55C186.472 128.754 186.472 124.178 181.628 121.382L155.333 106.2C140.325 97.5362 115.77 97.5362 100.766 106.2L64.177 127.301C45.3409 138.174 50.0745 150.646 67.2723 160.609C84.4702 170.569 107.622 174.251 126.459 163.378Z" fill="#E0E0E0"/>
<path d="M30.6445 103.18C30.6445 103.18 30.105 97.6789 27.4428 93.3706C24.7767 89.0662 21.063 86.3449 17.566 86.0102C14.0689 85.6794 11.1862 88.8575 14.8998 91.1298C18.6135 93.4021 25.2375 95.765 28.1714 104.094L30.6445 103.18Z" fill="#A48FFA"/>
<g opacity="0.15">
<path d="M30.6445 103.18C30.6445 103.18 30.105 97.6789 27.4428 93.3706C24.7767 89.0662 21.063 86.3449 17.566 86.0102C14.0689 85.6794 11.1862 88.8575 14.8998 91.1298C18.6135 93.4021 25.2375 95.765 28.1714 104.094L30.6445 103.18Z" fill="black"/>
</g>
<path d="M29.6405 101.743C29.6523 101.739 29.6641 101.739 29.6759 101.731C29.7744 101.695 29.8217 101.585 29.7823 101.49C26.2301 92.3264 19.2517 88.4159 16.0579 87.6282C15.9594 87.6046 15.857 87.6637 15.8295 87.7661C15.8058 87.8685 15.8649 87.9669 15.9673 87.9945C19.0942 88.7664 25.9347 92.61 29.4318 101.632C29.4672 101.711 29.5539 101.758 29.6405 101.743Z" fill="white"/>
<path d="M12.3618 99.7775C12.6414 100.459 13.37 100.829 14.0473 101.124C14.7207 101.416 15.4611 101.735 15.8155 102.381C16.5283 103.688 15.2563 105.468 16.0243 106.744C16.3472 107.28 16.9655 107.571 17.5759 107.697C18.0839 107.807 18.6037 107.819 19.1196 107.874C19.3677 107.874 19.6158 107.863 19.8561 107.835C20.5689 107.752 21.3407 107.737 21.9827 108.119C22.9908 108.721 23.2704 110.021 23.869 111.037C24.5818 112.25 25.8814 113.065 27.2598 113.289C28.4176 113.474 30.1622 113.258 30.4772 112.754C30.7135 112.368 30.0676 111.175 30.0637 110.722C30.0558 109.56 29.9416 108.402 29.7172 107.264C29.6069 106.709 29.5202 106.26 29.536 105.693C29.5557 105.098 29.5714 104.507 29.5833 103.913C29.5951 103.271 29.7605 102.771 29.5439 102.117C29.3391 101.495 28.961 100.935 28.5869 100.404C28.2128 99.876 27.8347 99.3562 27.4527 98.8363C26.9998 98.2259 26.5351 97.6116 25.9484 97.1272C24.9284 96.2883 23.55 95.9024 22.2386 96.0875C21.1556 96.2411 20.0845 96.82 18.97 96.7373C17.887 96.6585 16.8355 96.3435 15.7289 96.3907C14.5711 96.4419 13.3778 96.8988 12.6926 97.8754C12.3027 98.4307 12.1058 99.1593 12.3618 99.7775Z" fill="#A48FFA"/>
<path d="M29.5937 109.851C29.5977 109.851 29.6016 109.851 29.6056 109.847C29.6961 109.828 29.7513 109.737 29.7276 109.646C27.3018 99.486 16.7121 97.7493 14.2193 97.8635C14.1287 97.8674 14.0578 97.9462 14.0617 98.0368C14.0657 98.1274 14.1444 98.1982 14.235 98.1943C16.6727 98.084 27.034 99.7814 29.4047 109.721C29.4283 109.808 29.5071 109.863 29.5937 109.851Z" fill="white"/>
<path d="M17.9172 104.433C17.9487 104.429 17.9802 104.413 18.0077 104.389C18.0353 104.362 20.8156 101.763 25.2972 102.542C25.3878 102.558 25.4744 102.499 25.4902 102.408C25.5059 102.318 25.4469 102.231 25.3563 102.215C20.7054 101.408 17.8108 104.121 17.7833 104.149C17.7163 104.212 17.7163 104.318 17.7793 104.385C17.8108 104.421 17.866 104.44 17.9172 104.433Z" fill="white"/>
<path d="M38.4889 61.99L35.2872 52.755L29.1949 49.2383L29.1988 56.6262V113.887L38.4889 119.25V61.99Z" fill="#A48FFA"/>
<g opacity="0.5">
<path d="M38.4889 61.99L35.2872 52.755L29.1949 49.2383L29.1988 56.6262V113.887L38.4889 119.25V61.99Z" fill="black"/>
</g>
<path d="M52.8883 42.5869L56.0861 51.8218L38.4905 61.9822L35.2928 52.7473L52.8883 42.5869Z" fill="#A48FFA"/>
<path opacity="0.2" d="M52.8883 42.5869L56.0861 51.8218L38.4905 61.9822L35.2928 52.7473L52.8883 42.5869Z" fill="black"/>
<path d="M52.8866 42.592L46.7943 39.0752L29.1987 49.2356L35.291 52.7523L52.8866 42.592Z" fill="#A48FFA"/>
<path opacity="0.1" d="M52.8866 42.592L46.7943 39.0752L29.1987 49.2356L35.291 52.7523L52.8866 42.592Z" fill="black"/>
<path d="M38.4889 61.9844C38.5716 66.7574 38.6071 71.5265 38.6386 76.2995L38.6858 90.6146L38.6386 104.93L38.5834 112.085L38.485 119.241L38.3905 112.085L38.3353 104.93L38.292 90.6146L38.3393 76.2995C38.3708 71.5265 38.4062 66.7574 38.4889 61.9844Z" fill="white"/>
<path d="M56.0852 51.8232C54.7344 52.6975 53.36 53.5324 51.9816 54.3673C50.6072 55.1982 49.2131 56.0016 47.8269 56.8207C46.4249 57.6123 45.0348 58.4157 43.6289 59.1915L41.5141 60.3493C40.8013 60.7234 40.0964 61.1094 39.3757 61.4717C40.0491 61.0306 40.7343 60.6132 41.4156 60.1839L43.4753 58.9316C44.8536 58.1006 46.2438 57.2973 47.63 56.4821C49.032 55.6905 50.4221 54.8871 51.8281 54.1113C53.2419 53.3276 54.6517 52.5597 56.0852 51.8232Z" fill="white"/>
<path d="M52.7844 42.6465C51.4337 43.5208 50.0592 44.3596 48.6809 45.1905C47.3065 46.0215 45.9124 46.8248 44.5262 47.644C43.1242 48.4355 41.734 49.2389 40.3281 50.0147L38.2133 51.1726C37.5005 51.5467 36.7956 51.9326 36.0749 52.2949C36.7483 51.8538 37.4336 51.4364 38.1149 51.0071L40.1745 49.7548C41.5529 48.9239 42.943 48.1205 44.3293 47.3053C45.7312 46.5137 47.1214 45.7104 48.5273 44.9345C49.9411 44.1509 51.3549 43.379 52.7844 42.6465Z" fill="white"/>
<path d="M38.4881 61.9827L56.0837 51.8223L56.0876 109.087L38.4881 119.243V61.9827Z" fill="#A48FFA"/>
<path opacity="0.3" d="M38.4881 61.9827L56.0837 51.8223L56.0876 109.087L38.4881 119.243V61.9827Z" fill="black"/>
<path d="M40.0632 62.8918L54.5083 54.5508L54.5122 108.176L40.0632 116.513V62.8918Z" fill="#455A64"/>
<path d="M52.8845 57.3633V79.531L41.6844 85.9935V63.8297L52.0851 57.824L52.8845 57.3633Z" fill="#37474F"/>
<path d="M52.8855 57.3633L52.0861 57.824L52.09 79.0703L52.8855 79.531V57.3633Z" fill="#263238"/>
<path d="M52.0895 79.0714L41.685 85.0732V63.8309L52.0856 57.8252L52.0895 79.0714Z" fill="#A48FFA"/>
<path d="M48.0877 62.4502L45.0987 67.9911L47.1741 68.5189L46.1423 73.1698L48.8754 67.3453L46.7882 66.8924L48.0877 62.4502Z" fill="#FAFAFA"/>
<path opacity="0.15" d="M43.7143 76.5725L50.4603 72.6776C50.6966 72.5398 50.8856 72.6383 50.8856 72.8942C50.8856 73.1502 50.6966 73.4653 50.4603 73.6031L43.7143 77.4979C43.478 77.6358 43.2889 77.5373 43.2889 77.2813C43.2889 77.0254 43.478 76.7103 43.7143 76.5725Z" fill="black"/>
<path opacity="0.15" d="M43.7142 78.4221L50.4603 74.5273C50.6965 74.3894 50.8856 74.4879 50.8856 74.7439C50.8856 74.9998 50.6965 75.3149 50.4603 75.4527L43.7142 79.3436C43.4779 79.4814 43.2889 79.383 43.2889 79.127C43.2889 78.875 43.4779 78.556 43.7142 78.4221Z" fill="black"/>
<path opacity="0.15" d="M43.7142 80.2707L50.4603 76.3759C50.6965 76.2381 50.8856 76.3365 50.8856 76.5925C50.8856 76.8485 50.6965 77.1635 50.4603 77.3014L43.7142 81.1922C43.4779 81.3301 43.2889 81.2316 43.2889 80.9756C43.2889 80.7236 43.4779 80.4046 43.7142 80.2707Z" fill="black"/>
<path d="M30.3024 72.0565C30.3024 71.0601 30.6529 70.367 31.2121 70.0677C31.2869 70.0283 31.5862 69.855 31.665 69.8117C32.1573 69.5242 32.8189 69.5597 33.5474 69.9811C35.0675 70.8593 36.3002 73.0883 36.3002 74.9589V79.3066C36.3002 80.2478 35.9891 80.9173 35.485 81.2402C35.3826 81.3032 35.0085 81.5119 34.9258 81.5592C34.4335 81.8349 33.7798 81.7994 33.0552 81.382C31.535 80.5038 30.3024 78.2748 30.3024 76.4042V72.0565Z" fill="#A48FFA"/>
<path d="M33.059 70.2594C31.5389 69.3812 30.3062 70.1885 30.3062 72.0591V76.4068C30.3062 78.2774 31.5389 80.5064 33.059 81.3846C34.5791 82.2628 35.8117 81.4555 35.8117 79.5849V75.2372C35.8117 73.3665 34.5791 71.1376 33.059 70.2594Z" fill="#A48FFA"/>
<path opacity="0.7" d="M33.059 70.2594C31.5389 69.3812 30.3062 70.1885 30.3062 72.0591V76.4068C30.3062 78.2774 31.5389 80.5064 33.059 81.3846C34.5791 82.2628 35.8117 81.4555 35.8117 79.5849V75.2372C35.8117 73.3665 34.5791 71.1376 33.059 70.2594Z" fill="white"/>
<path opacity="0.5" d="M34.9726 81.5363C35.1025 81.4615 35.4018 81.3 35.4885 81.2409C35.9925 80.918 36.3037 80.2485 36.3037 79.3073V74.9556C36.3037 74.1089 36.0477 73.1874 35.6342 72.3525L35.1419 72.6321C35.5633 73.467 35.8114 74.3846 35.8114 75.2313V79.579C35.8114 80.5399 35.4885 81.2173 34.9726 81.5363Z" fill="white"/>
<path opacity="0.9" d="M31.3025 70.0203C31.779 69.8116 32.3894 69.8707 33.055 70.2566C33.8899 70.7371 34.6342 71.6231 35.1383 72.6352L35.6305 72.3556C35.1304 71.3475 34.3821 70.4614 33.5512 69.9809C32.8226 69.5596 32.1571 69.532 31.6648 69.8155C31.6097 69.847 31.4207 69.9534 31.3025 70.0203Z" fill="white"/>
<path d="M33.0586 72.8717C32.2986 72.4346 31.6803 72.789 31.6803 73.6672C31.6803 74.5454 32.2946 75.6126 33.0586 76.0537C33.8187 76.4908 34.437 76.1364 34.437 75.2582C34.4331 74.3761 33.8187 73.3088 33.0586 72.8717Z" fill="#37474F"/>
<path d="M32.0111 73.4799C32.0111 73.1373 32.1096 72.8734 32.2711 72.708C32.4955 72.6569 32.7673 72.7041 33.0587 72.8734C33.8187 73.3106 34.437 74.3818 34.437 75.26C34.437 75.6065 34.3386 75.8664 34.1771 76.0318C33.9526 76.083 33.6809 76.0358 33.3895 75.8664C32.6255 75.4254 32.0111 74.3581 32.0111 73.4799Z" fill="#455A64"/>
<path d="M81.0354 93.2239L80.681 94.7007C79.8658 96.2287 78.0621 98.1584 77.4163 97.997C76.8374 97.8552 76.4829 97.0124 76.3018 95.9728V95.9609C76.2152 95.4844 76.1679 94.9685 76.1521 94.4566C76.097 92.8222 76.8256 89.0062 79.0939 87.9941C79.6098 87.7657 80.0785 87.9468 80.4408 88.2973C80.744 88.5927 80.9764 88.9983 81.0984 89.3803C81.4765 90.5224 81.0866 93.1649 81.0354 93.2239Z" fill="#A48FFA"/>
<path opacity="0.3" d="M81.0354 93.2239C80.9173 93.8343 80.681 94.7007 80.681 94.7007C79.8658 96.2287 78.0621 98.1584 77.4163 97.997C76.8374 97.8552 76.4829 97.0124 76.3018 95.9728V95.9609C76.2152 95.4844 76.1679 94.9685 76.1521 94.4566C76.097 92.8222 76.8256 89.0062 79.0939 87.9941C79.6098 87.7657 80.0785 87.9468 80.4408 88.2973C80.744 88.5927 80.9764 88.9983 81.0984 89.3803C81.4765 90.5224 81.0866 93.1649 81.0354 93.2239Z" fill="black"/>
<path d="M80.681 94.7007C79.8658 96.2287 78.0621 98.1584 77.4163 97.997C76.8374 97.8552 76.4829 97.0124 76.3018 95.9728V95.9609C76.2152 95.4844 76.1679 94.9685 76.1521 94.4566C76.097 92.8222 76.8256 89.0062 79.0939 87.9941C79.6098 87.7657 80.0785 87.9468 80.4408 88.2973L80.1297 89.0023C78.5426 89.6796 78.1133 92.1291 78.263 93.9958C78.4048 95.8546 79.7713 95.6616 80.681 94.7007Z" fill="#A48FFA"/>
<path opacity="0.35" d="M80.681 94.7007C79.8658 96.2287 78.0621 98.1584 77.4163 97.997C76.8374 97.8552 76.4829 97.0124 76.3018 95.9728V95.9609C76.2152 95.4844 76.1679 94.9685 76.1521 94.4566C76.097 92.8222 76.8256 89.0062 79.0939 87.9941C79.6098 87.7657 80.0785 87.9468 80.4408 88.2973L80.1297 89.0023C78.5426 89.6796 78.1133 92.1291 78.263 93.9958C78.4048 95.8546 79.7713 95.6616 80.681 94.7007Z" fill="black"/>
<path d="M81.0946 89.3768C80.5196 88.7703 79.0979 88.7388 77.8968 90.3849C76.6957 92.035 76.3058 94.8626 76.3019 95.9574C76.2152 95.4809 76.168 94.965 76.1522 94.453C76.0971 92.8187 76.8217 89.0027 79.094 87.9906C80.0392 87.5692 80.8228 88.538 81.0946 89.3768Z" fill="#37474F"/>
<path d="M156.101 88.5645L133.5 76.1003C132.642 75.482 131.598 74.9897 130.346 74.6589C131.322 69.1179 123.257 62.7027 115.763 64.8372C115.763 64.8372 98.8407 71.9061 94.6584 76.3956C88.4203 83.0905 80.867 90.4587 78.6223 96.2202C78.2127 97.2638 116.314 135.184 116.314 135.184L132.09 144.293L172.854 97.7994C169.629 91.3133 165.45 86.2134 156.101 88.5645ZM115.747 67.2198C118.878 66.3849 121.079 66.3612 124.057 69.114C126.065 70.9767 126.723 76.5256 124.962 77.4471C119.705 80.2038 115.53 82.3895 112.262 84.1025L112.242 84.1144C112.219 84.1262 112.175 84.1498 112.108 84.1853L112.092 84.1931C110.958 84.7878 111.1 83.5394 111.289 82.4643C111.77 79.743 112.786 74.0288 113.353 70.8113C113.589 69.1101 114.321 67.5978 115.747 67.2198ZM81.312 96.8739C82.6628 92.3214 91.3976 83.4724 93.3785 81.653C98.3366 77.0966 102.436 74.0524 103.779 73.316C107.13 71.4808 108.867 70.5908 110.037 70.0158C111.494 69.2991 111.911 69.6417 111.876 70.0592C111.856 70.2639 111.829 70.516 111.773 70.8113L110.182 79.3256C109.919 80.5622 109.58 80.8221 107.52 81.9445C99.9079 86.0952 81.3632 96.8542 81.312 96.8739Z" fill="#A48FFA"/>
<path opacity="0.2" d="M156.101 88.5645L133.5 76.1003C132.642 75.482 131.598 74.9897 130.346 74.6589C131.323 69.1179 123.257 62.7027 115.763 64.8372C115.763 64.8372 100.046 71.8668 95.8636 76.3562C89.6256 83.0511 81.6509 91.1124 79.4062 96.8739C78.9966 97.9175 116.31 135.184 116.31 135.184L132.087 144.293L172.85 97.7994C169.629 91.3133 165.451 86.2134 156.101 88.5645ZM115.747 67.2198C118.878 66.3849 121.08 66.3612 124.057 69.114C126.065 70.9767 126.723 76.5256 124.963 77.4471C119.705 80.2038 115.531 82.3895 112.262 84.1025L112.242 84.1144C112.219 84.1262 112.175 84.1498 112.108 84.1853L112.093 84.1931C110.959 84.7878 111.1 83.5394 111.289 82.4643C111.77 79.743 112.786 74.0288 113.353 70.8113C113.589 69.1101 114.322 67.5978 115.747 67.2198ZM81.3122 96.8739C82.663 92.3214 91.3978 83.4724 93.3787 81.653C98.3368 77.0966 102.436 74.0524 103.779 73.316C107.131 71.4808 108.867 70.5908 110.037 70.0158C111.494 69.2991 111.912 69.6417 111.876 70.0592C111.856 70.2639 111.829 70.516 111.774 70.8113L110.183 79.3256C109.919 80.5622 109.58 80.8221 107.521 81.9445C99.9081 86.0952 81.3634 96.8542 81.3122 96.8739Z" fill="black"/>
<path d="M127.809 108.609L123.194 108.518L116.168 104.493C115.022 103.836 113.116 103.745 111.915 104.288L103.401 108.128L97.5643 108.014V111.42H97.5683C97.5683 111.802 97.84 112.196 98.3913 112.515L113.679 121.341C114.821 122.002 116.582 121.86 117.606 121.029L127.1 113.323C127.577 112.937 127.797 112.472 127.797 112.015C127.801 112.015 127.809 112.007 127.809 112.007V108.609Z" fill="#37474F"/>
<path d="M98.3867 109.111L113.675 117.936C114.817 118.598 116.577 118.456 117.601 117.625L127.096 109.918C128.12 109.087 128.025 107.878 126.879 107.221L116.167 101.085C115.021 100.427 113.115 100.337 111.91 100.88L98.497 106.933C97.2919 107.477 97.2446 108.453 98.3867 109.111Z" fill="#455A64"/>
<path d="M127.812 108.613V112.016C127.812 112.016 127.804 112.024 127.796 112.024C127.796 112.477 127.576 112.941 127.099 113.331L117.604 121.038C117.108 121.444 116.439 121.68 115.75 121.747V118.34C116.439 118.277 117.108 118.033 117.604 117.632L127.099 109.921C127.576 109.531 127.812 109.066 127.812 108.613Z" fill="#263238"/>
<path d="M129.285 107.605C129.305 108.003 129.175 108.278 128.958 108.412L125.064 110.661V110.657C125.288 110.539 125.418 110.255 125.398 109.85L124.552 90.8286C124.516 90.033 123.929 89.0721 123.244 88.6744L114.068 83.3776C113.714 83.1728 113.371 83.1571 113.103 83.3028V83.2988L116.967 81.0698V81.0738C117.238 80.9202 117.589 80.9241 117.955 81.1368L127.123 86.4336C127.812 86.8313 128.395 87.7922 128.431 88.5878L129.285 107.605Z" fill="#263238"/>
<path d="M114.076 83.3765L123.248 88.6733C123.933 89.0711 124.52 90.032 124.555 90.8235L125.398 109.849C125.434 110.64 124.906 110.959 124.221 110.565L111.162 103.028C110.477 102.63 110.012 101.673 110.13 100.889L112.623 84.0775C112.737 83.2938 113.387 82.9827 114.076 83.3765Z" fill="#37474F"/>
<path d="M128.037 87.363L124.154 89.6077C123.913 89.2139 123.594 88.8752 123.248 88.6744L114.072 83.3776C113.718 83.1728 113.375 83.1571 113.107 83.3028V83.2988L116.97 81.0698V81.0738C117.242 80.9202 117.593 80.9241 117.959 81.1368L127.127 86.4336C127.473 86.6305 127.796 86.9731 128.037 87.363Z" fill="#455A64"/>
<path d="M126.434 84.5965C126.434 83.4663 126.434 81.765 126.434 79.8629C126.434 76.4564 124.261 72.4395 121.579 70.8879C120.346 70.179 119.228 70.116 118.373 70.5807L118.369 70.5728L115.408 72.2938L116.719 74.8063V78.9847C116.719 79.7763 117.274 80.7411 117.963 81.1389L120.921 82.8441L123.146 87.1012L126.072 85.3999H126.076C126.297 85.266 126.434 84.9903 126.434 84.5965Z" fill="#263238"/>
<path d="M121.574 77.63L125.382 75.4325C124.492 73.491 123.118 71.7779 121.574 70.8879C120.341 70.179 119.223 70.116 118.368 70.5807L118.364 70.5728L115.403 72.2938L116.714 74.8063V75.6294L121.574 77.63Z" fill="#455A64"/>
<path d="M123.52 86.292C123.52 85.1618 123.52 83.4605 123.52 81.5584C123.52 78.1519 121.346 74.135 118.664 72.5834C115.982 71.0357 113.808 72.5401 113.808 75.9505V80.6841C113.808 81.4757 114.364 82.4405 115.053 82.8383L122.283 87.0127C122.961 87.4065 123.52 87.0875 123.52 86.292Z" fill="#37474F"/>
<path d="M114.351 87.4101C113.233 91.5373 112.693 95.8259 112.745 100.288C112.752 101.079 113.28 102.131 113.914 102.603C116.112 104.238 118.542 105.648 121.223 106.813C121.952 107.128 122.582 106.719 122.617 105.927C122.846 100.772 122.929 95.9637 122.661 91.9626C122.61 91.171 122.05 90.1274 121.408 89.6588C119.664 88.3868 117.884 87.3747 116.072 86.5752C115.348 86.2562 114.56 86.6422 114.351 87.4101Z" fill="#A48FFA"/>
<path opacity="0.15" d="M122.516 106.36C122.571 106.23 122.611 106.089 122.615 105.923C122.843 100.768 122.926 95.9597 122.658 91.9585C122.63 91.5647 122.481 91.1118 122.256 90.6944C121.748 89.9737 121.571 96.0621 121.575 99.7757C121.579 103.438 121.626 107.16 122.233 106.734C122.256 106.715 122.28 106.695 122.304 106.675C122.367 106.604 122.437 106.498 122.516 106.36Z" fill="black"/>
<g opacity="0.15">
<path d="M113.596 99.9707C113.596 99.9707 113.706 100.038 113.891 100.16C114.076 100.286 114.344 100.451 114.659 100.66C115.293 101.073 116.14 101.605 117.006 102.101C117.873 102.601 118.763 103.062 119.436 103.401C119.775 103.57 120.054 103.72 120.255 103.814C120.456 103.913 120.566 103.976 120.566 103.976C120.566 103.976 120.44 103.952 120.224 103.905C120.007 103.85 119.696 103.779 119.334 103.661C118.967 103.547 118.55 103.389 118.109 103.196C117.892 103.094 117.664 102.999 117.439 102.881C117.215 102.767 116.99 102.645 116.766 102.523C116.325 102.263 115.892 101.987 115.506 101.703C115.12 101.42 114.769 101.14 114.49 100.88C114.202 100.628 113.982 100.392 113.828 100.235C113.679 100.069 113.596 99.9707 113.596 99.9707Z" fill="black"/>
<path d="M113.596 97.5693C113.596 97.5693 113.706 97.6363 113.891 97.7584C114.076 97.8844 114.344 98.0498 114.659 98.2585C115.293 98.672 116.14 99.2037 117.006 99.6999C117.873 100.2 118.763 100.661 119.436 100.999C119.775 101.169 120.054 101.318 120.255 101.413C120.456 101.511 120.566 101.574 120.566 101.574C120.566 101.574 120.44 101.551 120.224 101.504C120.007 101.448 119.696 101.378 119.334 101.259C118.967 101.145 118.55 100.988 118.109 100.795C117.892 100.692 117.664 100.598 117.439 100.48C117.215 100.365 116.99 100.243 116.766 100.121C116.325 99.8613 115.892 99.5857 115.506 99.3021C115.12 99.0186 114.769 98.739 114.49 98.479C114.202 98.227 113.982 97.9907 113.828 97.8332C113.679 97.6639 113.596 97.5693 113.596 97.5693Z" fill="black"/>
<path d="M114.091 95.5801C114.091 95.5801 114.194 95.6392 114.367 95.7494C114.536 95.8676 114.788 96.0133 115.08 96.2062C115.666 96.5843 116.446 97.0687 117.257 97.5019C118.065 97.939 118.896 98.3368 119.526 98.64C119.841 98.7936 120.101 98.9236 120.286 99.0141C120.471 99.1047 120.573 99.1638 120.573 99.1638C120.573 99.1638 120.455 99.1441 120.254 99.1008C120.054 99.0535 119.766 98.9944 119.427 98.8921C119.089 98.7975 118.699 98.6636 118.285 98.5022C118.081 98.4155 117.868 98.3368 117.659 98.2304C117.45 98.132 117.238 98.0257 117.029 97.9154C116.824 97.7973 116.62 97.683 116.423 97.557C116.222 97.4389 116.037 97.301 115.856 97.179C115.497 96.919 115.174 96.6591 114.914 96.4189C114.65 96.1826 114.45 95.966 114.308 95.8164C114.166 95.6707 114.091 95.5801 114.091 95.5801Z" fill="black"/>
<path d="M114.293 93.334C114.293 93.334 114.391 93.3891 114.56 93.4994C114.726 93.6136 114.97 93.7554 115.249 93.9365C115.817 94.2988 116.573 94.7635 117.356 95.1731C118.14 95.5866 118.951 95.9568 119.558 96.2482C119.861 96.3979 120.117 96.5239 120.294 96.6105C120.471 96.7011 120.57 96.7562 120.57 96.7562C120.57 96.7562 120.456 96.7405 120.263 96.6971C120.07 96.6538 119.79 96.5987 119.463 96.5042C119.136 96.4136 118.754 96.2955 118.357 96.1419C118.16 96.0631 117.951 95.9883 117.746 95.8898C117.541 95.7993 117.337 95.6969 117.132 95.5945C116.931 95.4842 116.73 95.3739 116.541 95.2519C116.344 95.1376 116.167 95.0077 115.99 94.8856C115.643 94.6336 115.332 94.3815 115.084 94.1492C114.832 93.9208 114.639 93.7081 114.501 93.5663C114.363 93.4206 114.293 93.334 114.293 93.334Z" fill="black"/>
<path d="M114.635 91.1943C114.635 91.1943 114.726 91.2495 114.887 91.3479C115.045 91.4464 115.269 91.5881 115.537 91.7575C116.073 92.0962 116.782 92.5333 117.526 92.8995C118.266 93.2737 119.042 93.6005 119.617 93.8723C120.196 94.1401 120.57 94.3488 120.57 94.3488C120.57 94.3488 120.145 94.2897 119.523 94.1282C118.904 93.9707 118.085 93.7108 117.309 93.3209C117.12 93.2185 116.927 93.1161 116.746 93.0059C116.561 92.9035 116.392 92.7775 116.222 92.6633C115.892 92.4309 115.604 92.1867 115.368 91.9662C114.899 91.533 114.635 91.1943 114.635 91.1943Z" fill="black"/>
<path d="M115.43 89.1357C115.43 89.1357 115.761 89.3248 116.226 89.6162C116.695 89.9076 117.313 90.2817 117.955 90.6125C118.597 90.9473 119.254 91.2584 119.751 91.5104C120.247 91.7585 120.57 91.9515 120.57 91.9515C120.57 91.9515 120.196 91.9121 119.652 91.7704C119.109 91.6325 118.4 91.3844 117.73 91.0418C117.565 90.9512 117.399 90.8606 117.242 90.7622C117.08 90.6677 116.935 90.5613 116.789 90.459C116.502 90.2542 116.253 90.0336 116.053 89.8407C115.651 89.439 115.43 89.1357 115.43 89.1357Z" fill="black"/>
</g>
<path d="M110.438 104.715C108.027 105.148 105.641 106.377 103.274 108.153C102.64 108.629 102.644 109.448 103.278 109.921C105.925 111.902 108.996 113.658 112.485 115.206C113.21 115.529 114.388 115.505 115.092 115.135C117.176 114.044 119.027 112.752 120.594 111.209C121.157 110.653 121.063 109.775 120.421 109.314C117.991 107.57 115.581 106.101 113.198 105.081C112.466 104.766 111.217 104.577 110.438 104.715Z" fill="#A48FFA"/>
<g opacity="0.2">
<path d="M104.562 109.043C104.562 109.043 104.711 109.082 104.971 109.161C105.227 109.244 105.601 109.358 106.034 109.523C106.909 109.846 108.043 110.358 109.126 110.973C110.209 111.587 111.233 112.3 111.95 112.891C112.67 113.481 113.103 113.93 113.103 113.93C113.103 113.93 112.58 113.603 111.788 113.115C111.004 112.627 109.957 111.993 108.886 111.39C107.818 110.784 106.735 110.209 105.92 109.775C105.511 109.559 105.172 109.374 104.932 109.248C104.699 109.122 104.562 109.043 104.562 109.043Z" fill="black"/>
<path d="M106.861 107.72C106.861 107.72 107.011 107.759 107.271 107.838C107.527 107.921 107.901 108.035 108.334 108.2C109.208 108.523 110.343 109.035 111.426 109.649C112.508 110.264 113.532 110.977 114.249 111.567C114.97 112.158 115.403 112.607 115.403 112.607C115.403 112.607 114.879 112.28 114.088 111.792C113.304 111.303 112.256 110.669 111.185 110.067C110.118 109.46 109.035 108.885 108.22 108.452C107.81 108.236 107.472 108.051 107.231 107.925C106.995 107.798 106.861 107.72 106.861 107.72Z" fill="black"/>
<path d="M108.834 106.595C108.834 106.595 108.983 106.634 109.243 106.713C109.499 106.796 109.873 106.91 110.307 107.075C111.181 107.398 112.315 107.91 113.398 108.524C114.481 109.139 115.505 109.852 116.222 110.442C116.942 111.033 117.375 111.482 117.375 111.482C117.375 111.482 116.852 111.155 116.06 110.667C115.276 110.178 114.229 109.544 113.158 108.942C112.09 108.335 111.008 107.76 110.192 107.327C109.783 107.111 109.444 106.926 109.204 106.8C108.968 106.673 108.834 106.595 108.834 106.595Z" fill="black"/>
<path d="M110.989 105.676C110.989 105.676 111.127 105.711 111.367 105.782C111.603 105.857 111.946 105.959 112.348 106.109C113.151 106.4 114.195 106.869 115.187 107.432C116.179 107.995 117.121 108.653 117.774 109.2C118.432 109.748 118.826 110.161 118.826 110.161C118.826 110.161 118.7 110.09 118.491 109.96C118.278 109.831 117.979 109.645 117.617 109.425C116.896 108.98 115.931 108.401 114.951 107.85C113.974 107.294 112.982 106.763 112.233 106.361C111.859 106.156 111.548 105.987 111.332 105.869C111.111 105.751 110.989 105.676 110.989 105.676Z" fill="black"/>
</g>
<path d="M148.887 120.965L144.271 120.874L137.246 116.85C136.1 116.192 134.194 116.101 132.992 116.645L124.478 120.485L118.642 120.37V123.777H118.646C118.646 124.159 118.918 124.553 119.469 124.872L134.757 133.697C135.899 134.359 137.659 134.217 138.683 133.386L148.178 125.679C148.654 125.293 148.875 124.828 148.875 124.371C148.879 124.371 148.887 124.364 148.887 124.364V120.965Z" fill="#37474F"/>
<path d="M119.468 121.471L134.756 130.297C135.898 130.958 137.659 130.816 138.683 129.986L148.178 122.279C149.201 121.448 149.107 120.239 147.961 119.581L137.249 113.445C136.103 112.788 134.197 112.697 132.992 113.241L119.579 119.293C118.374 119.833 118.322 120.81 119.468 121.471Z" fill="#455A64"/>
<path d="M148.89 120.971V124.373C148.89 124.373 148.883 124.381 148.875 124.381C148.875 124.834 148.654 125.299 148.178 125.689L138.683 133.396C138.187 133.801 137.517 134.037 136.828 134.104V130.698C137.517 130.635 138.187 130.391 138.683 129.989L148.178 122.278C148.654 121.888 148.89 121.424 148.89 120.971Z" fill="#263238"/>
<path d="M150.363 119.961C150.382 120.359 150.252 120.635 150.036 120.769L146.141 123.017V123.014C146.365 122.895 146.495 122.612 146.476 122.206L145.629 103.185C145.598 102.389 145.007 101.429 144.322 101.031L135.146 95.734C134.791 95.5293 134.449 95.5135 134.181 95.6592V95.6553L138.044 93.4263V93.4302C138.316 93.2766 138.666 93.2806 139.033 93.4932L148.201 98.79C148.89 99.1878 149.473 100.149 149.508 100.944L150.363 119.961Z" fill="#263238"/>
<path d="M135.154 95.7347L144.325 101.031C145.011 101.429 145.597 102.39 145.633 103.182L146.476 122.207C146.511 122.998 145.983 123.317 145.298 122.924L132.239 115.386C131.554 114.988 131.089 114.031 131.208 113.248L133.7 96.4357C133.815 95.652 134.468 95.3369 135.154 95.7347Z" fill="#37474F"/>
<path d="M149.114 99.7194L145.231 101.964C144.991 101.57 144.672 101.232 144.325 101.031L135.149 95.734C134.795 95.5293 134.452 95.5135 134.185 95.6592V95.6553L138.048 93.4263V93.4302C138.32 93.2766 138.67 93.2806 139.036 93.4932L148.204 98.79C148.555 98.9869 148.874 99.3256 149.114 99.7194Z" fill="#455A64"/>
<path d="M147.511 96.953C147.511 95.8227 147.511 94.1215 147.511 92.2193C147.511 88.8128 145.337 84.796 142.656 83.2443C141.423 82.5355 140.304 82.4725 139.446 82.9372L139.442 82.9293L136.481 84.6502L137.792 87.1628V91.3411C137.792 92.1327 138.347 93.0975 139.036 93.4953L141.994 95.2005L144.219 99.4576L147.145 97.7564H147.149C147.373 97.6264 147.511 97.3468 147.511 96.953Z" fill="#263238"/>
<path d="M142.652 89.9864L146.46 87.7889C145.57 85.8474 144.196 84.1343 142.652 83.2443C141.419 82.5355 140.301 82.4725 139.442 82.9372L139.438 82.9293L136.477 84.6502L137.788 87.1628V87.9858L142.652 89.9864Z" fill="#455A64"/>
<path d="M144.597 98.6524C144.597 97.5221 144.597 95.8209 144.597 93.9187C144.597 90.5123 142.423 86.4954 139.742 84.9437C137.06 83.3961 134.886 84.9004 134.886 88.3108V93.0445C134.886 93.836 135.441 94.8009 136.13 95.1986L143.361 99.3731C144.042 99.7629 144.597 99.444 144.597 98.6524Z" fill="#37474F"/>
<path d="M135.43 99.766C134.315 103.893 133.772 108.182 133.823 112.644C133.831 113.435 134.359 114.487 134.993 114.959C137.19 116.594 139.62 118.004 142.302 119.169C143.03 119.484 143.66 119.075 143.696 118.283C143.924 113.128 144.007 108.32 143.739 104.319C143.688 103.527 143.129 102.483 142.487 102.015C140.742 100.743 138.962 99.7306 137.151 98.9311C136.43 98.6122 135.638 99.002 135.43 99.766Z" fill="#A48FFA"/>
<path opacity="0.15" d="M143.594 118.717C143.649 118.587 143.688 118.445 143.692 118.28C143.921 113.125 144.003 108.316 143.735 104.315C143.708 103.921 143.558 103.468 143.334 103.051C142.826 102.33 142.649 108.419 142.652 112.132C142.656 115.795 142.704 119.516 143.31 119.091C143.334 119.071 143.357 119.051 143.381 119.032C143.444 118.965 143.515 118.855 143.594 118.717Z" fill="black"/>
<g opacity="0.15">
<path d="M134.672 112.326C134.672 112.326 134.783 112.393 134.968 112.515C135.153 112.641 135.421 112.807 135.736 113.015C136.37 113.429 137.216 113.96 138.083 114.457C138.949 114.957 139.839 115.418 140.513 115.756C140.851 115.926 141.131 116.075 141.332 116.17C141.533 116.268 141.643 116.331 141.643 116.331C141.643 116.331 141.517 116.308 141.3 116.26C141.084 116.205 140.773 116.134 140.41 116.016C140.044 115.902 139.627 115.744 139.186 115.552C138.969 115.449 138.741 115.355 138.516 115.236C138.292 115.122 138.067 115 137.843 114.878C137.402 114.618 136.968 114.342 136.582 114.059C136.197 113.775 135.846 113.496 135.566 113.236C135.279 112.984 135.058 112.748 134.905 112.59C134.755 112.425 134.672 112.326 134.672 112.326Z" fill="black"/>
<path d="M134.672 109.925C134.672 109.925 134.783 109.992 134.968 110.114C135.153 110.24 135.421 110.405 135.736 110.614C136.37 111.027 137.216 111.559 138.083 112.055C138.949 112.555 139.839 113.016 140.513 113.355C140.851 113.524 141.131 113.674 141.332 113.768C141.533 113.867 141.643 113.93 141.643 113.93C141.643 113.93 141.517 113.906 141.3 113.859C141.084 113.804 140.773 113.733 140.41 113.615C140.044 113.501 139.627 113.343 139.186 113.15C138.969 113.048 138.741 112.953 138.516 112.835C138.292 112.721 138.067 112.599 137.843 112.477C137.402 112.217 136.968 111.941 136.582 111.658C136.197 111.374 135.846 111.094 135.566 110.835C135.279 110.582 135.058 110.346 134.905 110.189C134.755 110.023 134.672 109.925 134.672 109.925Z" fill="black"/>
<path d="M135.17 107.932C135.17 107.932 135.272 107.991 135.445 108.101C135.615 108.219 135.867 108.365 136.158 108.558C136.745 108.936 137.525 109.42 138.336 109.853C139.143 110.291 139.974 110.688 140.604 110.992C140.919 111.145 141.179 111.275 141.364 111.366C141.549 111.456 141.652 111.515 141.652 111.515C141.652 111.515 141.534 111.496 141.333 111.452C141.132 111.405 140.845 111.346 140.506 111.244C140.167 111.149 139.777 111.015 139.364 110.854C139.159 110.767 138.946 110.688 138.738 110.582C138.525 110.484 138.316 110.377 138.108 110.267C137.903 110.149 137.698 110.035 137.501 109.909C137.3 109.79 137.115 109.653 136.934 109.531C136.576 109.271 136.253 109.011 135.993 108.77C135.729 108.534 135.528 108.318 135.386 108.168C135.248 108.022 135.17 107.932 135.17 107.932Z" fill="black"/>
<path d="M135.369 105.689C135.369 105.689 135.468 105.745 135.637 105.855C135.802 105.969 136.047 106.111 136.326 106.292C136.893 106.654 137.649 107.119 138.433 107.529C139.217 107.942 140.028 108.312 140.634 108.604C140.938 108.753 141.194 108.879 141.371 108.966C141.548 109.057 141.647 109.112 141.647 109.112C141.647 109.112 141.532 109.096 141.339 109.053C141.146 109.009 140.867 108.954 140.54 108.86C140.213 108.769 139.831 108.651 139.433 108.497C139.236 108.419 139.028 108.344 138.823 108.245C138.618 108.155 138.413 108.052 138.209 107.95C138.008 107.84 137.807 107.729 137.618 107.607C137.421 107.493 137.244 107.363 137.066 107.241C136.72 106.989 136.409 106.737 136.161 106.505C135.909 106.276 135.716 106.064 135.578 105.922C135.444 105.78 135.369 105.689 135.369 105.689Z" fill="black"/>
<path d="M135.712 103.55C135.712 103.55 135.803 103.605 135.964 103.703C136.122 103.802 136.346 103.944 136.614 104.113C137.149 104.452 137.858 104.889 138.603 105.255C139.343 105.629 140.119 105.956 140.694 106.228C141.273 106.496 141.647 106.704 141.647 106.704C141.647 106.704 141.221 106.645 140.599 106.484C139.981 106.326 139.162 106.066 138.386 105.676C138.197 105.574 138.004 105.472 137.823 105.361C137.638 105.255 137.468 105.133 137.299 105.019C136.968 104.786 136.681 104.542 136.444 104.322C135.976 103.888 135.712 103.55 135.712 103.55Z" fill="black"/>
<path d="M136.507 101.491C136.507 101.491 136.838 101.68 137.303 101.972C137.771 102.263 138.389 102.637 139.031 102.968C139.673 103.303 140.331 103.614 140.827 103.866C141.323 104.114 141.646 104.307 141.646 104.307C141.646 104.307 141.272 104.268 140.729 104.126C140.185 103.988 139.476 103.74 138.807 103.397C138.641 103.307 138.476 103.216 138.319 103.118C138.157 103.023 138.011 102.917 137.866 102.814C137.578 102.61 137.33 102.389 137.129 102.196C136.728 101.794 136.507 101.491 136.507 101.491Z" fill="black"/>
</g>
<path d="M131.516 117.071C129.106 117.504 126.719 118.733 124.353 120.509C123.718 120.985 123.722 121.804 124.356 122.277C127.003 124.258 130.075 126.014 133.564 127.558C134.288 127.881 135.466 127.857 136.171 127.487C138.254 126.396 140.105 125.104 141.672 123.561C142.236 123.005 142.141 122.127 141.499 121.666C139.069 119.922 136.659 118.453 134.277 117.433C133.548 117.126 132.296 116.933 131.516 117.071Z" fill="#A48FFA"/>
<g opacity="0.2">
<path d="M125.645 121.394C125.645 121.394 125.794 121.433 126.054 121.512C126.31 121.594 126.684 121.709 127.118 121.874C127.992 122.197 129.126 122.709 130.209 123.323C131.292 123.938 132.316 124.65 133.033 125.241C133.753 125.832 134.187 126.281 134.187 126.281C134.187 126.281 133.663 125.954 132.871 125.466C132.088 124.977 131.04 124.343 129.969 123.741C128.902 123.134 127.819 122.559 127.003 122.126C126.594 121.909 126.255 121.724 126.015 121.598C125.779 121.472 125.645 121.394 125.645 121.394Z" fill="black"/>
<path d="M127.941 120.069C127.941 120.069 128.09 120.109 128.35 120.187C128.606 120.27 128.98 120.384 129.414 120.55C130.288 120.873 131.422 121.385 132.505 121.999C133.588 122.613 134.612 123.326 135.329 123.917C136.049 124.508 136.483 124.957 136.483 124.957C136.483 124.957 135.959 124.63 135.167 124.141C134.383 123.653 133.336 123.019 132.265 122.416C131.198 121.81 130.115 121.235 129.299 120.802C128.89 120.585 128.551 120.4 128.311 120.274C128.075 120.148 127.941 120.069 127.941 120.069Z" fill="black"/>
<path d="M129.913 118.948C129.913 118.948 130.063 118.988 130.323 119.066C130.579 119.149 130.953 119.263 131.386 119.429C132.26 119.752 133.394 120.264 134.477 120.878C135.56 121.492 136.584 122.205 137.301 122.796C138.022 123.387 138.455 123.835 138.455 123.835C138.455 123.835 137.931 123.509 137.14 123.02C136.356 122.532 135.308 121.898 134.237 121.295C133.17 120.689 132.087 120.114 131.272 119.681C130.862 119.464 130.524 119.279 130.283 119.153C130.051 119.027 129.913 118.948 129.913 118.948Z" fill="black"/>
<path d="M132.068 118.029C132.068 118.029 132.206 118.065 132.447 118.136C132.683 118.21 133.025 118.313 133.427 118.462C134.23 118.754 135.274 119.223 136.267 119.786C137.259 120.349 138.2 121.007 138.854 121.554C139.512 122.101 139.905 122.515 139.905 122.515C139.905 122.515 139.779 122.444 139.571 122.314C139.358 122.184 139.059 121.999 138.696 121.778C137.976 121.333 137.011 120.754 136.03 120.203C135.054 119.648 134.061 119.116 133.313 118.715C132.939 118.51 132.628 118.34 132.411 118.222C132.191 118.1 132.068 118.029 132.068 118.029Z" fill="black"/>
</g>
<path d="M178.721 117.349L162.945 108.24L171.707 103.18L180.241 108.567L178.721 117.349Z" fill="#A48FFA"/>
<path opacity="0.35" d="M178.721 117.349L162.945 108.24L171.707 103.18L180.241 108.567L178.721 117.349Z" fill="black"/>
<path d="M172.069 115.186L174.334 110.685L168.946 107.566C167.233 106.582 164.949 106.692 162.44 108.141C157.116 111.217 156.002 117.297 155.998 124.004C155.998 127.517 153.981 131.841 155.876 132.967V132.971L155.95 133.014C155.954 133.018 155.958 133.018 155.962 133.022L161.487 136.212L163.878 131.467C168.399 127.997 171.896 121.172 172.069 115.186Z" fill="#37474F"/>
<path d="M172.069 115.186L174.334 110.685L168.946 107.566C167.233 106.582 164.949 106.692 162.44 108.141C157.116 111.217 156.002 117.297 155.998 124.004C155.998 127.517 153.981 131.841 155.876 132.967V132.971L155.95 133.014C155.954 133.018 155.958 133.018 155.962 133.022L161.487 136.212L163.878 131.467C168.399 127.997 171.896 121.172 172.069 115.186Z" fill="#263238"/>
<path d="M177.689 117.953C177.689 123.734 174.479 130.429 170.179 134.131C170.171 134.135 170.167 134.143 170.163 134.147C169.482 134.73 168.773 135.241 168.048 135.663C162.724 138.739 158.404 135.793 158.408 129.086C158.408 124.022 160.873 118.252 164.37 114.409C164.378 114.401 164.39 114.393 164.402 114.377C165.528 113.149 166.757 112.117 168.048 111.372C173.373 108.305 177.689 111.25 177.689 117.953Z" fill="#37474F"/>
<path d="M168.048 115.427C171.435 113.47 174.183 115.51 174.183 119.98C174.183 124.449 171.439 129.66 168.048 131.617C164.661 133.574 161.912 131.534 161.912 127.064C161.912 122.595 164.661 117.384 168.048 115.427Z" fill="#455A64"/>
<path d="M170.813 122.264C170.596 124.489 169.183 126.856 167.659 127.549C166.989 127.852 166.41 127.782 165.989 127.423C165.449 126.966 165.166 126.029 165.288 124.781C165.504 122.556 166.914 120.189 168.442 119.496C168.856 119.307 169.238 119.259 169.565 119.338C169.565 119.338 169.569 119.334 169.569 119.338C170.447 119.551 170.967 120.646 170.813 122.264Z" fill="#FAFAFA"/>
<path d="M170.262 121.981C170.045 124.206 168.632 126.573 167.107 127.266C166.694 127.451 166.316 127.502 165.985 127.423C165.446 126.966 165.162 126.029 165.284 124.781C165.501 122.556 166.911 120.189 168.439 119.496C168.852 119.307 169.234 119.259 169.561 119.338C169.561 119.338 169.565 119.334 169.565 119.338C170.1 119.799 170.384 120.736 170.262 121.981Z" fill="#E0E0E0"/>
<path d="M177.689 117.954C177.689 123.736 174.48 130.43 170.179 134.132C172.723 131.364 175.362 126.725 176.295 122.302C177.11 118.435 176.803 112.886 173.487 111.484C170.195 110.09 165.788 113.036 164.406 114.383C165.532 113.154 166.761 112.122 168.053 111.378C173.373 108.306 177.689 111.252 177.689 117.954Z" fill="#455A64"/>
<path d="M148.547 111.792C148.473 111.835 148.413 111.871 148.35 111.906C148.425 111.859 148.614 111.752 148.547 111.792Z" fill="#A48FFA"/>
<path d="M147.208 112.569V112.565C147.2 112.569 147.2 112.569 147.196 112.573C147.196 112.573 147.2 112.569 147.208 112.569ZM172.849 97.7967C172.849 92.2558 162.771 83.9423 155.253 87.6363C155.253 87.6363 140.855 95.044 137.465 99.5334C132.408 106.228 127.907 118.054 126.678 123.816C126.454 124.86 130.053 123.036 131.29 122.733C131.758 122.615 132.113 123.017 132.113 123.017L132.085 144.29L155.34 130.909C155.34 130.298 155.371 129.68 155.438 129.046C156.151 121.67 161.558 113.112 167.355 109.769C173.648 106.134 178.748 109.528 178.748 117.354C179.8 116.865 180.323 116.369 180.583 115.065C180.847 113.762 180.847 111.655 180.847 107.957C180.847 103.684 178.504 99.2144 172.849 97.7967ZM166.965 98.3402C162.192 101.097 159.392 102.712 156.427 104.425L156.407 104.436C156.387 104.448 156.348 104.472 156.285 104.507L156.269 104.515C155.241 105.11 155.163 103.861 155.163 102.786C155.163 100.065 155.17 97.1666 155.17 93.9492C155.111 92.2479 155.576 90.7356 156.935 90.3576C159.92 89.5227 162.117 89.4991 165.579 92.2518C167.918 94.1146 168.564 97.4187 166.965 98.3402ZM132.113 118.44C132.66 113.888 136.256 107.362 137.354 105.126C139.855 100.026 144.833 97.1863 146.046 96.4499C149.074 94.6147 150.653 93.7247 151.721 93.1497C153.052 92.433 153.528 92.7756 153.568 93.193C153.583 93.3978 153.599 93.6499 153.599 93.9452V104.511C153.599 105.283 153.493 106.126 152.315 106.854C152.296 106.87 132.172 118.417 132.113 118.44Z" fill="#A48FFA"/>
<path opacity="0.5" d="M155.168 107.905C155.168 107.905 155.601 108.488 155.778 109.496C155.778 109.496 166.45 102.794 169.648 101.219C172.846 99.6433 177.071 100.439 179.245 103.979C179.245 103.979 178.284 101.171 175.571 99.915C172.409 98.4539 170.668 99.3636 164.698 102.498C158.732 105.633 155.168 107.905 155.168 107.905Z" fill="white"/>
<path opacity="0.5" d="M134.418 119.445L151.104 109.907C151.104 109.907 151.766 110.313 151.75 111.337L134.418 119.445Z" fill="white"/>
<path d="M148.28 116.085C148.193 116.136 148.083 116.073 148.083 115.971V115.357C148.083 114.892 148.776 114.116 149.635 113.62L150.899 112.891C151.757 112.395 152.451 112.372 152.451 112.836V113.336C152.451 113.545 152.34 113.742 152.155 113.844L148.28 116.085Z" fill="#37474F"/>
<path opacity="0.15" d="M135.343 138.514C134.398 139.018 134.205 136.986 133.665 133.04C133.126 129.094 133.177 122.481 133.177 122.481C132.527 125.439 132.799 132.606 133.177 137.198C133.555 141.79 134.421 141.365 135.339 140.68L151.828 130.381L135.343 138.514Z" fill="black"/>
<path opacity="0.15" d="M152.488 109.052C152.488 109.052 153.717 110.486 153.717 113.605C153.717 117.35 153.757 129.7 153.757 129.7C153.757 129.7 154.45 116.346 154.871 113.239C155.292 110.131 153.713 108.379 153.713 108.379L152.488 109.052Z" fill="black"/>
<path d="M167.865 93.2517C166.967 91.6882 164.703 89.6089 161.678 89.0142C157.512 88.1951 154.318 90.1169 152.306 91.1841C152.172 91.255 152.034 91.3259 151.896 91.4086C150.274 92.3734 145.229 95.2365 142.846 97.0874C140.554 98.8635 137.648 102.396 136.396 104.944C133.544 110.741 131.863 115.518 131.485 117.499C131.382 118.042 130.855 119.964 131.626 119.661C131.756 119.61 132.367 119.314 132.505 119.235C135.655 117.507 140.03 115.033 140.03 115.033C140.03 115.033 148.328 110.107 151.896 108.047C152.499 107.701 152.664 107.594 153.393 107.138C154.117 106.681 163.821 101.175 167.007 99.3243C169.011 98.1546 169.157 95.5121 167.865 93.2517ZM153.601 104.082C153.601 104.853 153.495 105.696 152.317 106.425C152.298 106.437 152.278 106.448 152.258 106.46C152.235 106.472 152.211 106.488 152.18 106.507C151.018 107.224 148.801 108.512 147.06 109.465C147.044 109.477 147.029 109.485 147.017 109.489C146.985 109.508 146.954 109.528 146.922 109.544C146.914 109.544 146.91 109.548 146.906 109.552L146.887 109.563C146.843 109.591 146.8 109.615 146.757 109.638C140.751 112.915 132.631 117.782 132.572 117.806C134.119 112.163 136.254 107.689 137.353 105.452C139.853 100.352 144.835 97.1898 146.048 96.4534C149.076 94.6182 150.656 93.7282 151.723 93.1532C153.054 92.4365 153.53 92.7791 153.57 93.1965C153.586 93.4013 153.601 93.6533 153.601 93.9487V104.082ZM166.451 98.2649C161.678 101.022 159.398 102.337 156.433 104.05L156.413 104.062C156.393 104.074 156.354 104.097 156.291 104.133L156.275 104.141C155.247 104.735 155.169 103.487 155.169 102.412C155.169 99.6905 155.177 97.1662 155.177 93.9487C155.117 92.2474 155.582 90.7352 156.941 90.3571C159.926 89.5222 162.123 89.4986 165.585 92.2514C167.92 94.1141 168.05 97.3434 166.451 98.2649Z" fill="#263238"/>
<path d="M147.006 109.492C147.03 109.48 147.05 109.468 147.078 109.452C147.002 109.496 146.99 109.504 147.006 109.492Z" fill="#263238"/>
<path d="M148.305 108.746C148.104 108.86 147.958 108.943 147.868 108.998C147.927 108.963 147.986 108.931 148.057 108.888C148.136 108.845 148.218 108.793 148.305 108.746Z" fill="#263238"/>
<path d="M152.475 106.334C152.535 106.302 152.539 106.298 152.475 106.334V106.334Z" fill="#263238"/>
<path d="M147.024 109.485C147.048 109.47 147.099 109.442 147.174 109.399C147.19 109.391 147.206 109.379 147.221 109.371C147.111 109.434 147.044 109.473 147.017 109.489C147.017 109.489 147.021 109.485 147.024 109.485Z" fill="#263238"/>
<path d="M147.54 109.185C147.583 109.161 147.622 109.137 147.674 109.11C147.705 109.09 147.74 109.07 147.78 109.051C147.488 109.22 147.351 109.299 147.366 109.287C147.268 109.346 147.209 109.378 147.193 109.389C147.232 109.366 147.276 109.342 147.327 109.311C147.339 109.303 147.355 109.295 147.366 109.287C147.378 109.275 147.437 109.244 147.54 109.185Z" fill="#263238"/>
<path opacity="0.5" d="M153.602 104.079C153.602 104.851 153.496 105.694 152.318 106.422C152.298 106.434 152.279 106.446 152.259 106.458C152.235 106.47 152.212 106.485 152.18 106.505C151.018 107.222 148.801 108.51 147.061 109.463C147.045 109.474 147.029 109.482 147.017 109.486C146.986 109.506 146.954 109.526 146.923 109.541C146.915 109.541 146.911 109.545 146.907 109.549L146.887 109.561C146.844 109.589 146.801 109.612 146.757 109.636C140.752 112.912 132.631 117.78 132.572 117.804C134.12 112.16 136.254 107.686 137.353 105.45C139.854 100.35 144.836 97.1874 146.049 96.4509C149.077 94.6158 150.656 93.7257 151.723 93.1508C153.054 92.434 153.531 92.7767 153.57 93.1941C153.586 93.3989 153.602 93.6509 153.602 93.9463V104.079Z" fill="black"/>
<path opacity="0.5" d="M166.452 98.2666C161.679 101.023 159.399 102.339 156.433 104.052L156.414 104.064C156.394 104.075 156.355 104.099 156.292 104.134L156.276 104.142C155.248 104.737 155.169 103.489 155.169 102.413C155.169 99.6922 155.177 97.1679 155.177 93.9504C155.118 92.2491 155.583 90.7369 156.941 90.3588C159.926 89.524 162.124 89.5003 165.586 92.2531C167.921 94.1158 168.051 97.3451 166.452 98.2666Z" fill="black"/>
<path d="M169.966 91.8826C165.685 86.255 159.545 79.5838 142.454 71.0105C125.339 62.4214 122.287 61.6023 113.107 65.9815C113.099 65.9854 113.095 65.9894 113.087 65.9933C108.145 68.1829 97.7993 73.015 94.6566 76.39C94.6566 76.39 95.3773 76.2561 95.8657 76.3506C101.808 77.9652 132.171 96.569 137.185 99.9125C137.358 99.6565 137.468 99.5265 137.468 99.5265C140.859 95.0371 155.257 87.6294 155.257 87.6294C159.612 85.4556 165.693 87.3301 169.989 91.9062C169.977 91.9023 169.97 91.8905 169.966 91.8826Z" fill="#A48FFA"/>
<path opacity="0.5" d="M169.966 91.8826C165.685 86.255 159.545 79.5838 142.454 71.0105C125.339 62.4214 122.287 61.6023 113.107 65.9815C113.099 65.9854 113.095 65.9894 113.087 65.9933C108.145 68.1829 97.7993 73.015 94.6566 76.39C94.6566 76.39 95.3773 76.2561 95.8657 76.3506C101.808 77.9652 132.171 96.569 137.185 99.9125C137.358 99.6565 137.468 99.5265 137.468 99.5265C140.859 95.0371 155.257 87.6294 155.257 87.6294C159.612 85.4556 165.693 87.3301 169.989 91.9062C169.977 91.9023 169.97 91.8905 169.966 91.8826Z" fill="white"/>
<path d="M104.265 105.4C92.7148 98.6619 80.5066 94.708 80.4829 94.7041C80.8137 95.9525 81.0264 98.5202 83.09 101.241C84.6849 103.348 86.6776 105.636 89.1232 107.283C94.9044 111.319 100.745 114.084 102.729 115.269C112.669 120.66 125.181 122.413 126.851 120.428C126.854 120.428 113.457 110.76 104.265 105.4Z" fill="#455A64"/>
<path d="M126.854 120.428C126.382 120.133 110.661 110.441 103.395 106.074C96.4757 101.915 82.2157 95.4878 80.4868 94.7041C81.9518 95.1688 92.7148 98.6619 104.265 105.4C113.457 110.76 122.869 117.463 126.854 120.428Z" fill="#37474F"/>
<path d="M132.083 144.294L116.311 135.185L125.073 130.125L132.083 134.189V144.294Z" fill="#A48FFA"/>
<path opacity="0.35" d="M132.083 144.294L116.311 135.185L125.073 130.125L132.083 134.189V144.294Z" fill="black"/>
<path d="M125.588 142.028L127.852 137.527L122.461 134.408C120.748 133.423 118.463 133.534 115.955 134.983C110.63 138.059 106.314 145.986 106.314 152.693C106.314 156.206 107.5 158.683 109.39 159.809V159.813L109.465 159.856C109.469 159.86 109.473 159.86 109.477 159.864L115.002 163.054L117.392 158.309C121.921 154.839 125.414 148.01 125.588 142.028Z" fill="#37474F"/>
<path d="M125.588 142.028L127.852 137.527L122.461 134.408C120.748 133.423 118.463 133.534 115.955 134.983C110.63 138.059 106.314 145.986 106.314 152.693C106.314 156.206 107.5 158.683 109.39 159.809V159.813L109.465 159.856C109.469 159.86 109.473 159.86 109.477 159.864L115.002 163.054L117.392 158.309C121.921 154.839 125.414 148.01 125.588 142.028Z" fill="#263238"/>
<path d="M131.206 144.798C131.206 150.579 127.997 157.274 123.696 160.976C123.689 160.98 123.685 160.988 123.681 160.991C122.999 161.574 122.29 162.086 121.566 162.508C116.241 165.583 111.921 162.638 111.925 155.931C111.925 150.866 114.391 145.097 117.888 141.257C117.896 141.25 117.907 141.242 117.919 141.226C119.045 139.997 120.274 138.965 121.566 138.221C126.89 135.149 131.206 138.091 131.206 144.798Z" fill="#37474F"/>
<path d="M121.566 142.269C124.953 140.312 127.702 142.352 127.702 146.821C127.702 151.291 124.957 156.501 121.566 158.459C118.18 160.416 115.431 158.376 115.431 153.906C115.431 149.436 118.18 144.226 121.566 142.269Z" fill="#455A64"/>
<path d="M124.338 149.129C124.106 151.35 122.672 153.709 121.144 154.391C120.471 154.69 119.892 154.615 119.474 154.249C118.939 153.788 118.663 152.851 118.793 151.599C119.025 149.377 120.455 147.019 121.987 146.337C122.4 146.152 122.782 146.109 123.109 146.192C123.109 146.192 123.113 146.188 123.113 146.192C123.995 146.408 124.507 147.511 124.338 149.129Z" fill="#FAFAFA"/>
<path d="M123.791 148.842C123.558 151.063 122.125 153.422 120.597 154.103C120.183 154.284 119.805 154.332 119.474 154.249C118.939 153.788 118.663 152.851 118.793 151.599C119.025 149.377 120.455 147.019 121.987 146.337C122.4 146.152 122.782 146.109 123.109 146.192C123.109 146.192 123.113 146.188 123.113 146.192C123.649 146.656 123.921 147.597 123.791 148.842Z" fill="#E0E0E0"/>
<path d="M131.207 144.798C131.207 150.579 127.998 157.274 123.697 160.976C126.241 158.207 128.88 153.568 129.813 149.146C130.628 145.278 130.321 139.729 127.005 138.327C123.713 136.933 119.306 139.879 117.924 141.226C119.05 139.997 120.279 138.965 121.571 138.221C126.891 135.149 131.207 138.091 131.207 144.798Z" fill="#455A64"/>
<path d="M131.409 120.637C131.409 120.637 128.459 120.85 127.333 121.22C126.328 121.551 115.656 121.204 105.106 116.589C98.7968 113.828 93.9884 111.54 88.6128 106.925C81.6069 100.907 80.6814 96.8745 79.9725 95.2441C77.0741 97.3038 73.1635 100.151 70.9109 101.884C65.748 106.18 59.4588 112.529 56.9699 119.554C56.8005 120.031 56.647 120.507 56.517 120.992C52.8348 134.409 55.9893 139.351 59.1477 143.455C60.4906 145.199 64.22 148.594 68.8709 151.367C72.813 153.722 76.6133 155.569 80.6893 157.419C83.1034 158.514 86.1475 159.479 88.0812 159.904C100.868 162.728 109.442 157.352 109.442 157.352C109.442 157.352 109.343 156.734 109.465 155.218C109.572 154.281 109.741 153.34 109.973 152.394C110.548 150.039 111.474 147.684 112.671 145.511C114.494 142.191 116.932 139.28 119.645 137.398C120.004 137.15 120.362 136.921 120.724 136.713C126.592 133.322 131.428 136.051 132.05 142.781C132.098 143.27 132.09 143.77 132.09 144.298L132.397 138.111L132.117 121.61C132.113 121.61 131.196 121.437 131.409 120.637Z" fill="#A48FFA"/>
<path opacity="0.2" d="M80.0078 100.103C87.8092 111.945 103.31 120.369 120.886 123.724C121.953 123.929 122.382 124.878 121.468 125.473C119.85 126.528 117.117 127.095 113.655 126.43C97.8318 121.802 86.8916 115.797 79.421 107.208C78.7082 106.389 77.7394 104.908 77.4677 103.856C77.0857 102.38 77.129 100.95 77.6567 99.863C78.1332 98.8785 79.4092 99.1936 80.0078 100.103Z" fill="black"/>
<path d="M72.5207 134.892C74.3126 135.833 77.5812 132.671 79.2234 131.402C80.8656 130.134 77.1087 126.779 75.0293 127.275C72.1072 127.972 70.9376 134.057 72.5207 134.892Z" fill="#455A64"/>
<path d="M80.6848 157.422C82.1301 158.079 83.8038 158.686 85.3318 159.162C83.4258 158.402 85.0325 154.622 83.599 153.22C82.0986 151.751 77.298 149.514 71.4893 146.159C65.6766 142.803 61.7581 139.165 60.8721 140.291C59.2811 142.311 58.0327 141.937 58.0248 141.937C58.391 142.465 58.7691 142.973 59.1472 143.465C60.4901 145.21 64.2195 148.604 68.8704 151.377C72.8125 153.724 76.6088 155.571 80.6848 157.422Z" fill="#455A64"/>
<g opacity="0.2">
<path d="M78.6166 96.2266C75.3715 99.5346 72.4219 103.162 70.2086 107.218C67.9639 111.254 66.4556 115.681 65.731 120.23C65.3726 122.506 65.1127 124.802 65.1796 127.09C65.2505 129.37 65.5931 131.666 66.495 133.745C66.6013 134.009 66.7116 134.269 66.8494 134.513C66.9833 134.761 67.1054 135.017 67.2432 135.261C67.5504 135.734 67.8379 136.222 68.2002 136.652C68.527 137.112 68.9405 137.498 69.3225 137.912C69.7518 138.278 70.1496 138.68 70.6182 138.995C71.5082 139.688 72.5243 140.204 73.5403 140.751C74.5681 141.259 75.6039 141.759 76.675 142.141C77.2028 142.358 77.7502 142.511 78.2936 142.689C78.5654 142.767 78.845 142.827 79.1167 142.897L79.5302 143L79.9476 143.075C81.0582 143.295 82.1963 143.366 83.3266 143.327C85.5949 143.264 87.8278 142.665 89.9781 141.873C91.0492 141.472 92.1086 141.015 93.1798 140.554L96.3854 139.199C98.5278 138.302 100.694 137.455 102.891 136.687C105.085 135.911 107.298 135.21 109.515 134.525C111.74 133.848 113.957 133.206 116.088 132.316C118.226 131.453 120.282 130.37 122.133 128.992C123.976 127.61 125.567 125.865 126.67 123.817C125.646 125.904 124.094 127.716 122.263 129.157C120.428 130.599 118.376 131.749 116.238 132.674C114.103 133.611 111.862 134.293 109.665 135.001C107.459 135.718 105.266 136.455 103.096 137.258C100.926 138.061 98.7837 138.932 96.6493 139.83L93.4554 141.2C92.3961 141.661 91.3289 142.129 90.2301 142.547C88.0405 143.366 85.7367 144 83.3541 144.079C82.1688 144.122 80.9755 144.055 79.8098 143.831L79.3727 143.756L78.9395 143.654C78.652 143.583 78.3606 143.52 78.077 143.437C77.5139 143.26 76.9428 143.098 76.3954 142.878C75.2849 142.472 74.2295 141.956 73.1819 141.432C72.1619 140.877 71.1026 140.334 70.1614 139.593C69.6691 139.259 69.2477 138.829 68.7988 138.439C68.3971 137.998 67.9639 137.585 67.6173 137.097C67.2353 136.636 66.9321 136.124 66.6092 135.62C66.4635 135.36 66.3335 135.092 66.1957 134.828C66.05 134.568 65.9357 134.293 65.8255 134.017C64.8921 131.823 64.5535 129.441 64.4905 127.098C64.4274 124.747 64.7267 122.411 65.1284 120.119C65.9358 115.523 67.5307 111.054 69.866 107.021C72.221 102.996 75.2455 99.4046 78.6166 96.2266Z" fill="black"/>
</g>
<path opacity="0.5" d="M95.5825 112.99C95.5825 112.99 83.7839 106.386 79.4007 95.9658C79.4007 95.9658 74.3442 100.727 71.2055 107.036C67.6729 114.14 66.5978 120.63 66.5978 120.63C66.5978 120.63 69.2128 110.494 73.6668 104.256C77.8452 98.4035 78.8612 96.9661 81.2595 100.802C83.0986 103.744 89.0334 110.856 95.5825 112.99Z" fill="white"/>
<path opacity="0.5" d="M113.919 132.362C110.989 133.079 105.456 134.453 100.864 136.293C96.2719 138.132 90.4631 141.727 84.4653 142.393C78.4675 143.054 72.4776 139.471 72.4776 139.471C72.4776 139.471 78.6251 142.302 84.3157 141.526C90.0063 140.751 95.4803 137.281 101.139 135.273C106.798 133.264 113.919 132.362 113.919 132.362Z" fill="white"/>
<path d="M105.892 151.691C105.333 151.612 103.939 151.986 101.568 152.668C99.1976 153.349 98.6266 153.412 97.7484 154.018C97.0041 154.53 95.0192 156.149 94.0623 156.645C92.5422 157.429 94.078 157.996 98.3115 158C102.549 158.004 103.998 156.732 104.975 155.428C105.952 154.121 107.168 151.868 105.892 151.691Z" fill="#455A64"/>
<path d="M56.0435 128.6C55.8741 129.565 55.8072 130.648 55.8032 130.928C55.7796 132.46 56.071 134 56.6736 135.409C56.8587 135.843 57.1855 136.335 57.6542 136.292C57.8432 136.276 57.4494 129.821 57.3627 129.195C57.28 128.616 57.1973 128.037 57.1146 127.458C57.0831 127.246 57.0044 126.982 56.7917 126.958C56.4412 126.923 56.201 127.71 56.0435 128.6Z" fill="#455A64"/>
<path d="M62.7836 122.916C63.2128 121.108 63.1853 118.111 63.2562 116.272C63.3467 113.925 63.4373 113.283 63.8587 111.101C64.0832 109.951 64.2486 109.002 63.8981 108.597C60.972 111.873 58.3729 115.61 56.9709 119.557C56.8016 120.033 56.648 120.51 56.518 120.994C56.392 121.459 56.2738 121.912 56.1636 122.353C56.4314 123.731 57.6601 125.625 59.2747 125.791C61.1374 125.984 62.3543 124.723 62.7836 122.916Z" fill="#455A64"/>
<path d="M62.0704 109.475C62.3816 109.231 62.7872 109.081 63.181 109.136C63.5827 109.192 63.4055 109.79 63.3228 110.042C63.1692 110.495 63.0156 110.944 62.862 111.397C62.7478 111.728 62.6848 112.149 62.2437 112.169C61.7081 112.192 61.4206 111.547 61.3261 111.109C61.1883 110.487 61.59 109.853 62.0704 109.475Z" fill="#A48FFA"/>
<path opacity="0.65" d="M62.0704 109.475C62.3816 109.231 62.7872 109.081 63.181 109.136C63.5827 109.192 63.4055 109.79 63.3228 110.042C63.1692 110.495 63.0156 110.944 62.862 111.397C62.7478 111.728 62.6848 112.149 62.2437 112.169C61.7081 112.192 61.4206 111.547 61.3261 111.109C61.1883 110.487 61.59 109.853 62.0704 109.475Z" fill="white"/>
<path d="M58.3509 124.584C59.0125 125.001 59.875 125.135 60.7768 124.277C61.277 123.8 61.5841 123.15 61.8047 122.493C62.7577 119.649 62.3048 116.546 61.8125 113.585C61.7574 113.242 61.6865 112.88 61.4502 112.628C60.7256 111.868 59.4575 113.234 58.9968 113.719C58.2485 114.498 57.6499 115.424 57.2285 116.42C56.6496 117.787 56.1062 119.779 56.4094 121.272C56.6457 122.445 57.2994 123.922 58.3509 124.584Z" fill="#A48FFA"/>
<path opacity="0.65" d="M58.3509 124.584C59.0125 125.001 59.875 125.135 60.7768 124.277C61.277 123.8 61.5841 123.15 61.8047 122.493C62.7577 119.649 62.3048 116.546 61.8125 113.585C61.7574 113.242 61.6865 112.88 61.4502 112.628C60.7256 111.868 59.4575 113.234 58.9968 113.719C58.2485 114.498 57.6499 115.424 57.2285 116.42C56.6496 117.787 56.1062 119.779 56.4094 121.272C56.6457 122.445 57.2994 123.922 58.3509 124.584Z" fill="white"/>
<path opacity="0.45" d="M59.253 114.817C58.1267 116.116 58.0243 118.196 59.0167 119.598C59.2176 119.881 59.4893 120.157 59.8358 120.196C60.1942 120.236 60.5408 120.003 60.7298 119.696C60.9188 119.389 60.9858 119.023 61.0291 118.664C61.163 117.562 61.1472 116.447 61.1 115.337C61.0449 113.97 60.0524 113.895 59.253 114.817Z" fill="white"/>
<path d="M96.5006 141.356C98.4579 139.69 101.51 138.269 106.586 137.772C111.103 137.331 115.128 135.256 115.258 137.512C115.392 139.769 111.792 146.543 105.22 148.823C99.5527 150.788 95.9454 149.252 94.7403 147.346C93.5352 145.436 94.5434 143.022 96.5006 141.356Z" fill="#455A64"/>
<path d="M112.095 140.364C112.945 140.592 113.524 140.206 113.879 139.45C114.135 138.903 114.351 138.095 113.658 137.804C112.701 137.398 111.406 137.725 110.512 138.162C108.724 139.025 111.26 140.139 112.095 140.364Z" fill="#A48FFA"/>
<path opacity="0.65" d="M112.095 140.364C112.945 140.592 113.524 140.206 113.879 139.45C114.135 138.903 114.351 138.095 113.658 137.804C112.701 137.398 111.406 137.725 110.512 138.162C108.724 139.025 111.26 140.139 112.095 140.364Z" fill="white"/>
<path d="M109.88 143.44C110.451 142.412 110.762 141.235 109.962 140.407C109.155 139.573 107.588 139.317 106.493 139.214C103.13 138.895 99.6601 139.974 97.0688 142.14C96.4702 142.64 95.911 143.204 95.5487 143.893C95.1864 144.582 95.0328 145.409 95.277 146.149C96.3993 149.603 101.739 149.071 104.346 148.091C106.036 147.457 107.556 146.39 108.741 145.031C109.088 144.629 109.533 144.062 109.88 143.44Z" fill="#A48FFA"/>
<path opacity="0.65" d="M109.88 143.44C110.451 142.412 110.762 141.235 109.962 140.407C109.155 139.573 107.588 139.317 106.493 139.214C103.13 138.895 99.6601 139.974 97.0688 142.14C96.4702 142.64 95.911 143.204 95.5487 143.893C95.1864 144.582 95.0328 145.409 95.277 146.149C96.3993 149.603 101.739 149.071 104.346 148.091C106.036 147.457 107.556 146.39 108.741 145.031C109.088 144.629 109.533 144.062 109.88 143.44Z" fill="white"/>
<path opacity="0.45" d="M103.807 140.012C102.972 140.154 102.023 140.512 101.641 140.67C100.865 140.993 100.066 141.642 100.144 142.477C100.314 144.281 103.72 145.128 105.185 145.061C106.686 144.994 108.194 144.179 108.863 142.832C110.49 139.551 105.488 139.732 103.807 140.012Z" fill="white"/>
<path d="M95.8618 76.3633C88.9819 82.2941 85.28 86.6261 80.129 93.821C79.0972 95.605 82.2319 102.386 88.4187 107.404C105.172 120.978 126.075 123.609 128.186 121.416C131.167 110.822 134.255 104.552 137.177 99.9251C132.167 96.5817 101.804 77.9779 95.8618 76.3633ZM126.91 120.23C126.847 120.463 126.658 120.636 126.343 120.636C121.086 120.636 105.069 118.486 89.8955 106.927C81.909 100.839 81.5112 94.7623 81.3813 94.2897C85.4336 88.0635 88.9898 84.2277 95.0545 78.7301C95.6728 78.1709 96.5628 78.0291 97.3268 78.3639C105.64 81.9948 123.697 92.3679 133.345 99.3187C134.219 99.9488 134.483 101.13 133.963 102.071C130.214 108.841 128.844 113.484 126.91 120.23Z" fill="#37474F"/>
<path opacity="0.5" d="M126.911 120.229C126.848 120.461 126.659 120.635 126.344 120.635C121.086 120.635 105.07 118.484 89.8962 106.926C81.9096 100.838 81.5119 94.761 81.3819 94.2884C85.4343 88.0622 88.9904 84.2265 95.0551 78.7289C95.6734 78.1696 96.5634 78.0279 97.3274 78.3626C105.641 81.9936 123.697 92.3666 133.346 99.3174C134.22 99.9475 134.484 101.129 133.964 102.07C130.215 108.84 128.844 113.483 126.911 120.229Z" fill="black"/>
<path d="M137.516 121.879C136.788 125.352 132.936 126.085 130.057 125.998C128.529 125.955 127.273 125.675 126.891 125.455C125.777 124.813 126.292 123.478 126.887 122.706C127.895 121.399 132.428 118.776 135.271 118.685C136.933 118.63 138.024 119.441 137.516 121.879Z" fill="#A48FFA"/>
<path opacity="0.3" d="M137.516 121.879C136.788 125.352 132.936 126.085 130.057 125.998C128.529 125.955 127.273 125.675 126.891 125.455C125.777 124.813 126.292 123.478 126.887 122.706C127.895 121.399 132.428 118.776 135.271 118.685C136.933 118.63 138.024 119.441 137.516 121.879Z" fill="black"/>
<path d="M137.516 121.879C136.788 125.352 132.936 126.085 130.057 125.998C128.529 125.955 127.273 125.675 126.891 125.455C125.777 124.813 126.292 123.478 126.887 122.706C126.328 123.769 129.293 124.423 131.94 123.474C134.586 122.521 136.555 120.481 135.271 118.685C136.933 118.63 138.024 119.441 137.516 121.879Z" fill="#A48FFA"/>
<path opacity="0.35" d="M137.516 121.879C136.788 125.352 132.936 126.085 130.057 125.998C128.529 125.955 127.273 125.675 126.891 125.455C125.777 124.813 126.292 123.478 126.887 122.706C126.328 123.769 129.293 124.423 131.94 123.474C134.586 122.521 136.555 120.481 135.271 118.685C136.933 118.63 138.024 119.441 137.516 121.879Z" fill="black"/>
<path d="M137.516 121.879C136.787 125.352 132.936 126.085 130.057 125.998C132.928 125.916 135.212 124.266 136.078 122.462C136.937 120.662 136.287 118.914 135.271 118.685C136.933 118.63 138.024 119.441 137.516 121.879Z" fill="#37474F"/>
<path d="M32.6151 73.0301C32.2961 72.8529 32.0047 72.8096 31.7723 72.8765C31.7723 72.8765 31.5794 72.9868 31.4652 73.0616C30.9532 73.4397 30.6303 74.0501 30.65 74.7314C30.6815 75.838 31.6069 76.7162 32.7135 76.6887C33.0168 76.6808 33.3043 76.606 33.5563 76.4721C33.6666 76.409 33.8241 76.3145 33.8241 76.3145L33.828 76.3106C34.0092 76.1373 34.1076 75.8538 34.0998 75.4757C34.0761 74.5739 33.4145 73.4791 32.6151 73.0301Z" fill="#A48FFA"/>
<path d="M75.3631 132.119C74.8511 132.824 74.0714 133.162 73.7209 132.895C73.016 132.383 72.8585 131.398 73.3704 130.697C73.8824 129.992 74.8669 129.835 75.5679 130.347C75.8672 130.638 75.8751 131.414 75.3631 132.119Z" fill="#263238"/>
<path d="M52.8177 165.579C50.7856 165.579 48.5487 165.036 46.2764 163.721C43.8427 162.315 42.3383 160.357 41.8145 157.904C41.0033 154.104 42.7833 149.898 44.5515 147.448L45.0556 146.751C48.1785 142.443 49.8956 140.072 49.2891 137.611C48.5605 134.665 38.8609 135.063 28.6729 135.85C27.7947 135.917 26.8772 135.988 25.9241 136.063C19.3593 136.555 9.636 135.401 8.7066 132.397C8.35216 131.251 9.22643 130.061 11.2979 128.864C19.3041 124.245 26.2155 120.251 26.2155 111.658C26.2155 101.293 26.1447 95.768 26.0895 91.7314C26.058 89.467 26.0344 86.2101 26.0344 84.3277C26.0344 78.9915 31.2012 75.1125 31.4218 74.9471C31.595 74.8171 31.8431 74.8565 31.9731 75.0298C32.1031 75.203 32.0637 75.4511 31.8904 75.5811C31.8392 75.6205 26.822 79.3893 26.822 84.3277C26.822 86.2062 26.8457 89.4591 26.8772 91.7196C26.9284 95.7562 27.0032 101.285 27.0032 111.654C27.0032 120.704 19.568 124.997 11.6917 129.541C10.5142 130.223 9.1713 131.227 9.45878 132.16C10.1086 134.263 18.3865 135.835 25.8651 135.271C26.8181 135.201 27.7357 135.13 28.6139 135.059C39.2468 134.236 49.167 133.822 50.057 137.414C50.7541 140.23 48.9583 142.707 45.6975 147.204L45.1934 147.897C43.5158 150.213 41.8303 154.178 42.5864 157.727C43.0629 159.956 44.4373 161.736 46.6702 163.027C51.6835 165.922 56.4762 164.859 59.0045 162.519C61.1311 160.55 62.0762 157.396 62.0762 152.284C62.0762 151.485 62.0683 150.654 62.0644 149.811C62.0368 146.416 62.0093 142.907 62.3755 139.82C62.7851 136.39 64.1949 133.602 66.3491 131.979C68.2945 130.506 70.7795 130.002 73.7331 130.471C73.9497 130.506 74.0954 130.707 74.06 130.92C74.0245 131.132 73.8276 131.282 73.611 131.247C70.878 130.81 68.5978 131.266 66.8256 132.605C64.1556 134.622 63.3837 138.048 63.1592 139.911C62.7969 142.947 62.8245 146.432 62.852 149.803C62.8599 150.65 62.8638 151.481 62.8638 152.284C62.8638 157.632 61.8399 160.968 59.5361 163.094C57.9648 164.571 55.5783 165.579 52.8177 165.579Z" fill="#37474F"/>
<path d="M114.232 56.9352L112.011 52.7568L113.799 47.5978V44.4395L108.329 47.5978V50.7562L110.68 54.8283C110.719 54.8952 110.778 54.9425 110.841 54.97V54.974L114.232 56.9352Z" fill="#A48FFA"/>
<path opacity="0.2" d="M114.232 56.9352L112.011 52.7568L113.799 47.5978V44.4395L108.329 47.5978V50.7562L110.68 54.8283C110.719 54.8952 110.778 54.9425 110.841 54.97V54.974L114.232 56.9352Z" fill="black"/>
<path d="M127.294 19.3332C127.294 18.2857 126.561 17.0176 125.655 16.4938L124.32 15.7219C123.415 15.1982 121.946 15.1982 121.04 15.7219L100.562 27.5678C99.6557 28.0916 98.9232 29.3636 98.9232 30.4072V52.9413C98.9232 53.9888 99.6597 55.2608 100.562 55.7807L101.897 56.5525C102.802 57.0763 104.271 57.0763 105.177 56.5525L111.762 52.7483L114.109 56.8124C114.258 57.0724 114.644 57.0369 114.743 56.7534L117.224 49.5938L125.655 44.7106C126.561 44.1868 127.294 42.9148 127.294 41.8712V19.3332Z" fill="#A48FFA"/>
<path opacity="0.2" d="M98.9196 52.9367C98.9196 53.9843 99.6521 55.2563 100.558 55.7761L101.893 56.548C102.712 57.0206 103.984 57.06 104.894 56.6819C104.122 56.9733 103.535 56.5401 103.535 55.6029V33.0688C103.535 32.5451 103.72 31.9662 104.016 31.4542L99.4001 28.7881C99.1047 29.304 98.9196 29.8829 98.9196 30.4027V52.9367Z" fill="black"/>
<path opacity="0.5" d="M127.242 18.8655C127.049 18.1685 126.415 17.9479 125.659 18.3851L105.177 30.231C104.724 30.4909 104.315 30.9359 104.023 31.4557L99.4077 28.7936C99.707 28.2737 100.113 27.8287 100.562 27.5688L121.036 15.7229C121.946 15.203 123.415 15.203 124.32 15.7229L125.659 16.4948C126.431 16.9398 127.081 17.9322 127.242 18.8655Z" fill="white"/>
<path d="M124.376 25.7188C123.029 28.8535 124.691 33.725 123.506 37.5922C122.332 41.4201 120.178 43.1686 117.859 42.8654C117.587 38.5295 118.946 34.103 121.19 30.4563C119.048 32.6262 116.165 36.2375 116.795 42.7354C115.031 41.9714 113.416 38.5334 115.295 34.3078C117.878 28.4991 124.376 25.7188 124.376 25.7188Z" fill="white"/>
<path d="M110.21 30.6152L106.114 41.4727L109.631 42.0791L108.536 50.8218L112.801 39.5784L109.296 38.8144L110.21 30.6152Z" fill="white"/>
</svg>
