<svg width="18" height="20" viewBox="0 0 18 20" fill="none" xmlns="http://www.w3.org/2000/svg">
<g id="Group 149">
<path id="Vector" d="M13.5818 8.15868C13.5621 8.12384 13.5517 8.08443 13.5518 8.04436C13.552 8.00429 13.5626 7.96495 13.5826 7.93023C13.6026 7.89552 13.6313 7.86663 13.6659 7.84643C13.7005 7.82623 13.7398 7.81541 13.7799 7.81506H17.3355V6.20178C17.3357 5.72087 17.2093 5.24838 16.969 4.83179C16.7288 4.41519 16.3832 4.06914 15.9668 3.82843L10.0378 0.403838C9.62172 0.163585 9.14968 0.0371094 8.66917 0.0371094C8.18867 0.0371094 7.71663 0.163585 7.3005 0.403838L1.36861 3.82843C0.885641 4.11006 0.500486 4.53281 0.264939 5.03985L3.75942 11.0911C3.77933 11.1262 3.78967 11.1659 3.78941 11.2062C3.78915 11.2465 3.7783 11.286 3.75795 11.3208C3.7376 11.3556 3.70846 11.3845 3.67346 11.4045C3.63845 11.4245 3.5988 11.4349 3.55849 11.4348H-6.0626e-05V13.051C-0.000323457 13.5315 0.12605 14.0036 0.36633 14.4198C0.60661 14.8359 0.952311 15.1814 1.36861 15.4214L7.3005 18.846C7.71663 19.0862 8.18867 19.2127 8.66917 19.2127C9.14968 19.2127 9.62172 19.0862 10.0378 18.846L15.9726 15.4214C16.4555 15.141 16.8408 14.7191 17.0763 14.2129L13.5818 8.15868Z" fill="#8B7AF4"/>
<path id="Vector_2" d="M8.66934 5.00197C7.81978 5.00197 7.00501 5.33945 6.40428 5.94018C5.80355 6.54091 5.46606 7.35568 5.46606 8.20524C5.46606 9.9088 8.37813 13.8867 8.50044 14.0556L8.61692 14.2128C8.62325 14.2216 8.63154 14.2289 8.64115 14.2339C8.65075 14.239 8.6614 14.2417 8.67225 14.242C8.68355 14.242 8.6947 14.2393 8.70481 14.2343C8.71492 14.2292 8.72371 14.2219 8.73049 14.2128L8.84698 14.0556C8.9722 13.8867 11.8814 9.9088 11.8814 8.20524C11.8814 7.78385 11.7982 7.36658 11.6367 6.97737C11.4752 6.58816 11.2384 6.23465 10.9401 5.93708C10.6417 5.63952 10.2875 5.40375 9.89786 5.24328C9.50821 5.08282 9.09074 5.00082 8.66934 5.00197Z" fill="white"/>
<path id="Vector_3" d="M10.4865 8.17102H8.73922C8.71914 8.17102 8.69988 8.16305 8.68568 8.14886C8.67148 8.13466 8.6635 8.1154 8.6635 8.09532V6.24615C8.66428 6.22965 8.65943 6.21338 8.64974 6.2C8.64005 6.18663 8.62611 6.17696 8.61019 6.17256C8.59428 6.16816 8.57734 6.16928 8.56215 6.17578C8.54697 6.18227 8.53445 6.19374 8.52664 6.20829L6.77939 9.22521C6.7735 9.23652 6.77055 9.24912 6.77083 9.26187C6.77111 9.27462 6.77461 9.28709 6.781 9.29813C6.78739 9.30917 6.79647 9.31843 6.80739 9.32502C6.81831 9.33162 6.83072 9.33533 6.84346 9.33585H8.5907C8.61001 9.33585 8.62853 9.34352 8.64218 9.35718C8.65583 9.37083 8.6635 9.38934 8.6635 9.40865V11.2607C8.66459 11.2767 8.67071 11.2919 8.68098 11.3042C8.69125 11.3165 8.70515 11.3252 8.72068 11.3291C8.73621 11.3329 8.75257 11.3318 8.76741 11.3258C8.78225 11.3198 8.79481 11.3093 8.80328 11.2957L10.5505 8.28168C10.5564 8.27037 10.5594 8.25776 10.5591 8.24501C10.5588 8.23226 10.5553 8.21977 10.5489 8.20874C10.5425 8.1977 10.5334 8.18846 10.5225 8.18186C10.5116 8.17527 10.4992 8.17154 10.4865 8.17102Z" fill="#8B7AF4"/>
</g>
</svg>
